<mxfile host="app.diagrams.net" modified="2020-10-19T20:44:01.196Z" agent="5.0 (Macintosh; Intel Mac OS X 10_15_3) AppleWebKit/537.36 (KHTML, like Gecko) Chrome/86.0.4240.80 Safari/537.36" etag="tjXvvfYnV0GgokPP29sr" version="13.8.0" type="github">
  <diagram id="261lAa1EZaPhHnJhHldy" name="Page-1">
    <mxGraphModel dx="858" dy="489" grid="1" gridSize="10" guides="1" tooltips="1" connect="1" arrows="1" fold="1" page="1" pageScale="1" pageWidth="850" pageHeight="1100" math="0" shadow="0">
      <root>
        <mxCell id="0" />
        <mxCell id="1" parent="0" />
        <mxCell id="-oYrf_uy26-qNpr954tw-61" value="" style="ellipse;whiteSpace=wrap;html=1;rotation=30;fillColor=#e1d5e7;strokeColor=#9673a6;" vertex="1" parent="1">
          <mxGeometry x="601.65" y="422.5" width="275" height="150" as="geometry" />
        </mxCell>
        <mxCell id="-oYrf_uy26-qNpr954tw-57" value="" style="ellipse;whiteSpace=wrap;html=1;fillColor=#d5e8d4;strokeColor=#82b366;" vertex="1" parent="1">
          <mxGeometry x="15" y="490" width="795" height="390" as="geometry" />
        </mxCell>
        <mxCell id="-oYrf_uy26-qNpr954tw-55" value="" style="ellipse;whiteSpace=wrap;html=1;rotation=45;fillColor=#dae8fc;strokeColor=#6c8ebf;" vertex="1" parent="1">
          <mxGeometry x="445" y="240" width="290" height="200" as="geometry" />
        </mxCell>
        <mxCell id="-oYrf_uy26-qNpr954tw-54" value="" style="ellipse;whiteSpace=wrap;html=1;fillColor=#f5f5f5;strokeColor=#666666;fontColor=#333333;" vertex="1" parent="1">
          <mxGeometry x="120" y="400" width="120" height="80" as="geometry" />
        </mxCell>
        <mxCell id="-oYrf_uy26-qNpr954tw-50" value="" style="ellipse;whiteSpace=wrap;html=1;fillColor=#ffe6cc;strokeColor=#d79b00;" vertex="1" parent="1">
          <mxGeometry x="90" y="240" width="380" height="180" as="geometry" />
        </mxCell>
        <mxCell id="-oYrf_uy26-qNpr954tw-51" value="" style="ellipse;whiteSpace=wrap;html=1;fillColor=#f8cecc;strokeColor=#b85450;" vertex="1" parent="1">
          <mxGeometry x="240" y="390" width="320" height="110" as="geometry" />
        </mxCell>
        <mxCell id="-oYrf_uy26-qNpr954tw-1" value="Life" style="text;html=1;align=center;verticalAlign=middle;resizable=0;points=[];autosize=1;fontStyle=1" vertex="1" parent="1">
          <mxGeometry x="355" y="50" width="40" height="20" as="geometry" />
        </mxCell>
        <mxCell id="-oYrf_uy26-qNpr954tw-2" value="Homeostasis" style="text;html=1;align=center;verticalAlign=middle;resizable=0;points=[];autosize=1;fontStyle=1" vertex="1" parent="1">
          <mxGeometry x="265" y="110" width="90" height="20" as="geometry" />
        </mxCell>
        <mxCell id="-oYrf_uy26-qNpr954tw-3" value="Autocatalysis" style="text;html=1;align=center;verticalAlign=middle;resizable=0;points=[];autosize=1;fontStyle=1" vertex="1" parent="1">
          <mxGeometry x="430" y="110" width="90" height="20" as="geometry" />
        </mxCell>
        <mxCell id="-oYrf_uy26-qNpr954tw-4" value="Physiology" style="text;html=1;align=center;verticalAlign=middle;resizable=0;points=[];autosize=1;fontStyle=1" vertex="1" parent="1">
          <mxGeometry x="215" y="170" width="80" height="20" as="geometry" />
        </mxCell>
        <mxCell id="-oYrf_uy26-qNpr954tw-5" value="Behavior" style="text;html=1;align=center;verticalAlign=middle;resizable=0;points=[];autosize=1;fontStyle=1" vertex="1" parent="1">
          <mxGeometry x="325" y="170" width="70" height="20" as="geometry" />
        </mxCell>
        <mxCell id="-oYrf_uy26-qNpr954tw-6" value="State Control" style="text;html=1;align=center;verticalAlign=middle;resizable=0;points=[];autosize=1;fontStyle=1" vertex="1" parent="1">
          <mxGeometry x="195" y="260" width="90" height="20" as="geometry" />
        </mxCell>
        <mxCell id="-oYrf_uy26-qNpr954tw-7" value="Sensorimotor Control" style="text;html=1;align=center;verticalAlign=middle;resizable=0;points=[];autosize=1;fontStyle=1" vertex="1" parent="1">
          <mxGeometry x="485" y="280" width="140" height="20" as="geometry" />
        </mxCell>
        <mxCell id="-oYrf_uy26-qNpr954tw-8" value="Agency" style="text;html=1;align=center;verticalAlign=middle;resizable=0;points=[];autosize=1;fontStyle=1" vertex="1" parent="1">
          <mxGeometry x="150" y="430" width="60" height="20" as="geometry" />
        </mxCell>
        <mxCell id="-oYrf_uy26-qNpr954tw-9" value="Exploitation" style="text;html=1;align=center;verticalAlign=middle;resizable=0;points=[];autosize=1;fontStyle=1" vertex="1" parent="1">
          <mxGeometry x="275" y="430" width="80" height="20" as="geometry" />
        </mxCell>
        <mxCell id="-oYrf_uy26-qNpr954tw-10" value="Exploration&lt;br&gt;(Hippocampus)" style="text;html=1;align=center;verticalAlign=middle;resizable=0;points=[];autosize=1;fontStyle=1" vertex="1" parent="1">
          <mxGeometry x="415" y="415" width="100" height="30" as="geometry" />
        </mxCell>
        <mxCell id="-oYrf_uy26-qNpr954tw-11" value="Interaction" style="text;html=1;align=center;verticalAlign=middle;resizable=0;points=[];autosize=1;fontStyle=1" vertex="1" parent="1">
          <mxGeometry x="360" y="470" width="80" height="20" as="geometry" />
        </mxCell>
        <mxCell id="-oYrf_uy26-qNpr954tw-12" value="Circadian" style="text;html=1;align=center;verticalAlign=middle;resizable=0;points=[];autosize=1;fontStyle=1" vertex="1" parent="1">
          <mxGeometry x="110" y="320" width="70" height="20" as="geometry" />
        </mxCell>
        <mxCell id="-oYrf_uy26-qNpr954tw-13" value="Energy Regulation" style="text;html=1;align=center;verticalAlign=middle;resizable=0;points=[];autosize=1;fontStyle=1" vertex="1" parent="1">
          <mxGeometry x="220" y="310" width="120" height="20" as="geometry" />
        </mxCell>
        <mxCell id="-oYrf_uy26-qNpr954tw-14" value="Rest" style="text;html=1;align=center;verticalAlign=middle;resizable=0;points=[];autosize=1;fontStyle=1" vertex="1" parent="1">
          <mxGeometry x="150" y="360" width="40" height="20" as="geometry" />
        </mxCell>
        <mxCell id="-oYrf_uy26-qNpr954tw-15" value="Energy Seeking" style="text;html=1;align=center;verticalAlign=middle;resizable=0;points=[];autosize=1;fontStyle=1" vertex="1" parent="1">
          <mxGeometry x="240" y="360" width="110" height="20" as="geometry" />
        </mxCell>
        <mxCell id="-oYrf_uy26-qNpr954tw-16" value="Ingestion" style="text;html=1;align=center;verticalAlign=middle;resizable=0;points=[];autosize=1;fontStyle=1" vertex="1" parent="1">
          <mxGeometry x="390" y="310" width="70" height="20" as="geometry" />
        </mxCell>
        <mxCell id="-oYrf_uy26-qNpr954tw-17" value="Movement" style="text;html=1;align=center;verticalAlign=middle;resizable=0;points=[];autosize=1;fontStyle=1" vertex="1" parent="1">
          <mxGeometry x="550" y="330" width="70" height="20" as="geometry" />
        </mxCell>
        <mxCell id="-oYrf_uy26-qNpr954tw-18" value="Escape" style="text;html=1;align=center;verticalAlign=middle;resizable=0;points=[];autosize=1;fontStyle=1" vertex="1" parent="1">
          <mxGeometry x="645" y="350" width="60" height="20" as="geometry" />
        </mxCell>
        <mxCell id="-oYrf_uy26-qNpr954tw-19" value="Approach" style="text;html=1;align=center;verticalAlign=middle;resizable=0;points=[];autosize=1;fontStyle=1" vertex="1" parent="1">
          <mxGeometry x="550" y="400" width="70" height="20" as="geometry" />
        </mxCell>
        <mxCell id="-oYrf_uy26-qNpr954tw-20" value="Action Intention" style="text;html=1;align=center;verticalAlign=middle;resizable=0;points=[];autosize=1;fontStyle=1" vertex="1" parent="1">
          <mxGeometry x="235" y="530" width="110" height="20" as="geometry" />
        </mxCell>
        <mxCell id="-oYrf_uy26-qNpr954tw-21" value="Action Specification" style="text;html=1;align=center;verticalAlign=middle;resizable=0;points=[];autosize=1;fontStyle=1" vertex="1" parent="1">
          <mxGeometry x="405" y="530" width="130" height="20" as="geometry" />
        </mxCell>
        <mxCell id="-oYrf_uy26-qNpr954tw-33" value="Levate" style="text;html=1;align=center;verticalAlign=middle;resizable=0;points=[];autosize=1;fontStyle=1" vertex="1" parent="1">
          <mxGeometry x="160" y="540" width="50" height="20" as="geometry" />
        </mxCell>
        <mxCell id="-oYrf_uy26-qNpr954tw-34" value="Vidate" style="text;html=1;align=center;verticalAlign=middle;resizable=0;points=[];autosize=1;fontStyle=1" vertex="1" parent="1">
          <mxGeometry x="80" y="620" width="50" height="20" as="geometry" />
        </mxCell>
        <mxCell id="-oYrf_uy26-qNpr954tw-35" value="Dividate" style="text;html=1;align=center;verticalAlign=middle;resizable=0;points=[];autosize=1;fontStyle=1" vertex="1" parent="1">
          <mxGeometry x="110" y="680" width="60" height="20" as="geometry" />
        </mxCell>
        <mxCell id="-oYrf_uy26-qNpr954tw-36" value="Reordinate" style="text;html=1;align=center;verticalAlign=middle;resizable=0;points=[];autosize=1;fontStyle=1" vertex="1" parent="1">
          <mxGeometry x="155" y="720" width="80" height="20" as="geometry" />
        </mxCell>
        <mxCell id="-oYrf_uy26-qNpr954tw-37" value="Procedural" style="text;html=1;align=center;verticalAlign=middle;resizable=0;points=[];autosize=1;fontStyle=1" vertex="1" parent="1">
          <mxGeometry x="495" y="660" width="80" height="20" as="geometry" />
        </mxCell>
        <mxCell id="-oYrf_uy26-qNpr954tw-38" value="Propositional" style="text;html=1;align=center;verticalAlign=middle;resizable=0;points=[];autosize=1;fontStyle=1" vertex="1" parent="1">
          <mxGeometry x="575" y="740" width="90" height="20" as="geometry" />
        </mxCell>
        <mxCell id="-oYrf_uy26-qNpr954tw-39" value="Perceptual" style="text;html=1;align=center;verticalAlign=middle;resizable=0;points=[];autosize=1;fontStyle=1" vertex="1" parent="1">
          <mxGeometry x="405" y="700" width="80" height="20" as="geometry" />
        </mxCell>
        <mxCell id="-oYrf_uy26-qNpr954tw-40" value="Participatory" style="text;html=1;align=center;verticalAlign=middle;resizable=0;points=[];autosize=1;fontStyle=1" vertex="1" parent="1">
          <mxGeometry x="305" y="660" width="90" height="20" as="geometry" />
        </mxCell>
        <mxCell id="-oYrf_uy26-qNpr954tw-41" value="Shared Intention" style="text;html=1;align=center;verticalAlign=middle;resizable=0;points=[];autosize=1;fontStyle=1" vertex="1" parent="1">
          <mxGeometry x="225" y="760" width="110" height="20" as="geometry" />
        </mxCell>
        <mxCell id="-oYrf_uy26-qNpr954tw-42" value="Coordination" style="text;html=1;align=center;verticalAlign=middle;resizable=0;points=[];autosize=1;fontStyle=1" vertex="1" parent="1">
          <mxGeometry x="675" y="460" width="90" height="20" as="geometry" />
        </mxCell>
        <mxCell id="-oYrf_uy26-qNpr954tw-43" value="Social Cognition" style="text;html=1;align=center;verticalAlign=middle;resizable=0;points=[];autosize=1;fontStyle=1" vertex="1" parent="1">
          <mxGeometry x="305" y="830" width="110" height="20" as="geometry" />
        </mxCell>
        <mxCell id="-oYrf_uy26-qNpr954tw-44" value="Imitation" style="text;html=1;align=center;verticalAlign=middle;resizable=0;points=[];autosize=1;fontStyle=1" vertex="1" parent="1">
          <mxGeometry x="765" y="510" width="70" height="20" as="geometry" />
        </mxCell>
        <mxCell id="-oYrf_uy26-qNpr954tw-45" value="Language" style="text;html=1;align=center;verticalAlign=middle;resizable=0;points=[];autosize=1;fontStyle=1" vertex="1" parent="1">
          <mxGeometry x="730" y="660" width="70" height="20" as="geometry" />
        </mxCell>
        <mxCell id="-oYrf_uy26-qNpr954tw-46" value="Mind-Reading" style="text;html=1;align=center;verticalAlign=middle;resizable=0;points=[];autosize=1;fontStyle=1" vertex="1" parent="1">
          <mxGeometry x="440" y="830" width="90" height="20" as="geometry" />
        </mxCell>
        <mxCell id="-oYrf_uy26-qNpr954tw-47" value="Navigation" style="text;html=1;align=center;verticalAlign=middle;resizable=0;points=[];autosize=1;fontStyle=1" vertex="1" parent="1">
          <mxGeometry x="625" y="570" width="80" height="20" as="geometry" />
        </mxCell>
        <mxCell id="-oYrf_uy26-qNpr954tw-48" value="Grasping" style="text;html=1;align=center;verticalAlign=middle;resizable=0;points=[];autosize=1;fontStyle=1" vertex="1" parent="1">
          <mxGeometry x="375" y="590" width="70" height="20" as="geometry" />
        </mxCell>
        <mxCell id="-oYrf_uy26-qNpr954tw-49" value="&lt;b&gt;Vocalization&lt;/b&gt;" style="text;html=1;align=center;verticalAlign=middle;resizable=0;points=[];autosize=1;" vertex="1" parent="1">
          <mxGeometry x="555" y="620" width="80" height="20" as="geometry" />
        </mxCell>
        <mxCell id="-oYrf_uy26-qNpr954tw-56" value="&lt;b&gt;Empathy&lt;/b&gt;" style="text;html=1;align=center;verticalAlign=middle;resizable=0;points=[];autosize=1;" vertex="1" parent="1">
          <mxGeometry x="760" y="570" width="70" height="20" as="geometry" />
        </mxCell>
        <mxCell id="-oYrf_uy26-qNpr954tw-60" value="" style="ellipse;whiteSpace=wrap;html=1;textOpacity=0;labelBackgroundColor=none;opacity=50;fillColor=#fff2cc;strokeColor=#d6b656;" vertex="1" parent="1">
          <mxGeometry x="100" y="480" width="130" height="90" as="geometry" />
        </mxCell>
        <mxCell id="-oYrf_uy26-qNpr954tw-62" value="&lt;font style=&quot;font-size: 20px&quot;&gt;&lt;b&gt;Hypothalamus&lt;/b&gt;&lt;/font&gt;" style="text;html=1;align=center;verticalAlign=middle;resizable=0;points=[];autosize=1;" vertex="1" parent="1">
          <mxGeometry x="15" y="240" width="150" height="20" as="geometry" />
        </mxCell>
        <mxCell id="-oYrf_uy26-qNpr954tw-63" value="&lt;font style=&quot;font-size: 20px&quot;&gt;&lt;b&gt;Basal&lt;br&gt;Ganglia&lt;br&gt;&lt;/b&gt;&lt;/font&gt;" style="text;html=1;align=center;verticalAlign=middle;resizable=0;points=[];autosize=1;" vertex="1" parent="1">
          <mxGeometry x="40" y="390" width="90" height="40" as="geometry" />
        </mxCell>
        <mxCell id="-oYrf_uy26-qNpr954tw-64" value="&lt;font style=&quot;font-size: 20px&quot;&gt;&lt;b&gt;Thalamus&lt;br&gt;&lt;/b&gt;&lt;/font&gt;" style="text;html=1;align=center;verticalAlign=middle;resizable=0;points=[];autosize=1;" vertex="1" parent="1">
          <mxGeometry y="480" width="110" height="20" as="geometry" />
        </mxCell>
        <mxCell id="-oYrf_uy26-qNpr954tw-65" value="&lt;font style=&quot;font-size: 20px&quot;&gt;&lt;b&gt;NeoCortex&lt;br&gt;&lt;/b&gt;&lt;/font&gt;" style="text;html=1;align=center;verticalAlign=middle;resizable=0;points=[];autosize=1;" vertex="1" parent="1">
          <mxGeometry x="5" y="820" width="120" height="20" as="geometry" />
        </mxCell>
        <mxCell id="-oYrf_uy26-qNpr954tw-66" value="&lt;font style=&quot;font-size: 20px&quot;&gt;&lt;b&gt;Cerebellum&lt;br&gt;&lt;/b&gt;&lt;/font&gt;" style="text;html=1;align=center;verticalAlign=middle;resizable=0;points=[];autosize=1;" vertex="1" parent="1">
          <mxGeometry x="735" y="400" width="120" height="20" as="geometry" />
        </mxCell>
        <mxCell id="-oYrf_uy26-qNpr954tw-67" value="&lt;font style=&quot;font-size: 20px&quot;&gt;&lt;b&gt;Pallium&lt;br&gt;&lt;/b&gt;&lt;/font&gt;" style="text;html=1;align=center;verticalAlign=middle;resizable=0;points=[];autosize=1;" vertex="1" parent="1">
          <mxGeometry x="500" y="470" width="90" height="20" as="geometry" />
        </mxCell>
        <mxCell id="-oYrf_uy26-qNpr954tw-68" value="&lt;font style=&quot;font-size: 20px&quot;&gt;&lt;b&gt;Midbrain,&lt;br&gt;Hindbrain,&lt;br&gt;Spinal Cord&lt;br&gt;&lt;/b&gt;&lt;/font&gt;" style="text;html=1;align=center;verticalAlign=middle;resizable=0;points=[];autosize=1;" vertex="1" parent="1">
          <mxGeometry x="655" y="225" width="130" height="50" as="geometry" />
        </mxCell>
      </root>
    </mxGraphModel>
  </diagram>
</mxfile>
